Coordinates
version=1
nRows=5
nColumns=46
inDegrees=yes

Units are S.I. units (second, meters, Newtons, ...)
Angles are in degrees.

endheader
time	pelvis_tilt	pelvis_list	pelvis_rotation	pelvis_tx	pelvis_ty	pelvis_tz	bb_angle	bb_tx	bb_ty	bb_tz	hip_flexion_r	hip_adduction_r	hip_rotation_r	knee_angle_r	knee_angle_r_beta	ankle_angle_r	subtalar_angle_r	mtp_angle_r	crank_angle_r	hip_flexion_l	hip_adduction_l	hip_rotation_l	knee_angle_l	knee_angle_l_beta	ankle_angle_l	subtalar_angle_l	mtp_angle_l	crank_angle_l	lumbar_extension	lumbar_bending	lumbar_rotation	arm_flex_r	arm_add_r	arm_rot_r	elbow_flex_r	pro_sup_r	wrist_flex_r	wrist_dev_r	arm_flex_l	arm_add_l	arm_rot_l	elbow_flex_l	pro_sup_l	wrist_flex_l	wrist_dev_l
      2.50500000	    -14.92716940	     -2.64134323	     -9.15011307	      0.19177314	      1.07356818	     -0.30109942	      0.00000000	      0.50000000	      0.00000000	      0.25000000	     80.86519044	      2.35109595	      4.06447825	    113.36990706	      1.97867815	      8.56170540	     -3.42092032	      0.00000000	      0.00000000	     45.48164764	    -14.90709640	     -6.10584449	     31.27300334	      0.54581688	    -29.94119400	      2.02568699	      0.00000000	      0.00000000	    -64.53131770	     -8.57989240	      8.71794075	     89.61557020	    -15.41084840	     28.41092533	     47.22367982	     33.32308035	      0.00000000	      0.00000000	     87.04357892	      1.01243469	     10.51699736	     51.22031755	     39.53816033	      0.00000000	      0.00000000
      2.51000000	    -15.03710894	     -2.85406205	     -9.31130695	      0.19179719	      1.07358002	     -0.30150771	      0.00000000	      0.50000000	      0.00000000	      0.25000000	     81.63839373	      2.53529289	      3.84628042	    113.72566197	      1.98488725	      8.75796506	     -3.28225929	      0.00000000	      0.00000000	     44.99578491	    -15.12331643	     -6.28443238	     30.70010168	      0.53581785	    -30.76432621	      2.09052501	      0.00000000	      0.00000000	    -64.46081896	     -8.38156295	      8.97197220	     89.62259831	    -15.26090218	     28.40408918	     47.33808046	     33.27852795	      0.00000000	      0.00000000	     87.08699878	      0.74869753	     10.64375578	     51.14168107	     39.53701713	      0.00000000	      0.00000000
      2.51500000	    -15.17786391	     -3.04837729	     -9.48265657	      0.19182045	      1.07358789	     -0.30186551	      0.00000000	      0.50000000	      0.00000000	      0.25000000	     82.42173530	      2.73911822	      3.65846695	    114.00622444	      1.98978398	      9.13465967	     -3.16538703	      0.00000000	      0.00000000	     44.55423178	    -15.33705560	     -6.46286124	     30.11758696	      0.52565106	    -31.80964849	      2.10811156	      0.00000000	      0.00000000	    -64.36836232	     -8.26572123	      9.08898631	     89.62730573	    -15.06954971	     28.36240883	     47.50411565	     33.21332487	      0.00000000	      0.00000000	     87.07678599	      0.39545332	     10.87180957	     51.01117815	     39.53813132	      0.00000000	      0.00000000
      2.52000000	    -15.27714510	     -3.21796084	     -9.65562588	      0.19179479	      1.07351330	     -0.30220519	      0.00000000	      0.50000000	      0.00000000	      0.25000000	     83.18712460	      2.97704898	      3.53380070	    114.28378027	      1.99462825	      9.45219194	     -3.01379188	      0.00000000	      0.00000000	     44.12025879	    -15.52005581	     -6.61429531	     29.67707168	      0.51796261	    -32.66408866	      2.02316647	      0.00000000	      0.00000000	    -64.30027130	     -8.12765366	      9.20971681	     89.63008591	    -14.82785384	     28.28884082	     47.68164373	     33.12546138	      0.00000000	      0.00000000	     87.11086374	     -0.01718245	     11.20683865	     50.88203531	     39.54999954	      0.00000000	      0.00000000
      2.52500000	    -15.30887599	     -3.24660378	     -9.79374222	      0.19178610	      1.07347323	     -0.30271801	      0.00000000	      0.50000000	      0.00000000	      0.25000000	     83.89090074	      3.07697835	      3.52953067	    114.53556026	      1.99902264	      9.80345186	     -2.80425775	      0.00000000	      0.00000000	     43.62954913	    -15.53125791	     -6.81437650	     29.29120073	      0.51122789	    -33.51954597	      1.90231554	      0.00000000	      0.00000000	    -64.31537362	     -7.99583844	      9.03821335	     89.63402391	    -14.11759301	     27.57841691	     47.93475487	     32.18589084	      0.00000000	      0.00000000	     87.25070703	     -1.47428724	     13.85363777	     50.91073499	     39.80492957	      0.00000000	      0.00000000
